# xmcd
#
# Track frame offsets:
#	150
#	14472
#	24164
#	34462
#	45731
#	61935
#	76946
#	90712
#	104257
#	126731
#	138441
#	148724
#	158506
#	173965
#
# Disc length: 2546 seconds
# Revision: 0
# Processed by: cddbd v1.5.2PL0 Copyright (c) Steve Scherf et al.
# Submitted via: dBpowerAMP V12.0
#
DISCID=ba09f00e
DTITLE=Gaye Adegbalola - Blues in All Flavors
DYEAR=2011
DGENRE=Blues Children
TTITLE0=The Sunshine Shake
TTITLE1=Blues For The Greens
TTITLE2=The Cleanest Kid
TTITLE3=Zip-a-Dee-Doo-Dah
TTITLE4=Please, Please, Please, Please
TTITLE5=The Thank You Song
TTITLE6=Grandma and Grandpa's House
TTITLE7=Stop That Bully
TTITLE8=It Hurts (The Picked Last Song)
TTITLE9=The Kindness Song
TTITLE10=Don't-be-Moody-do-Yo'-Duty Song
TTITLE11=Hand Jivin'
TTITLE12=The Recycle Song
TTITLE13=What a Wonderful World
EXTD=
EXTT0=
EXTT1=
EXTT2=
EXTT3=
EXTT4=
EXTT5=
EXTT6=
EXTT7=
EXTT8=
EXTT9=
EXTT10=
EXTT11=
EXTT12=
EXTT13=
PLAYORDER=
